<?xml version="1.0" encoding="utf-8"?>
<!-- Generator: Adobe Illustrator 23.0.0, SVG Export Plug-In . SVG Version: 6.00 Build 0)  -->
<svg version="1.1" id="Layer_1" xmlns="http://www.w3.org/2000/svg" xmlns:xlink="http://www.w3.org/1999/xlink" x="0px" y="0px"
	 viewBox="0 0 154.07 155.74" style="enable-background:new 0 0 154.07 155.74;" xml:space="preserve">
<g>
	<g>
		<path d="M58.98,112.55c12.72-12.32,25.45-24.65,38.92-37.69C84.69,62,72.02,49.67,59.35,37.33c0.23-0.26,0.47-0.53,0.7-0.79
			c20.75,12.72,41.5,25.43,62.94,38.57c-21.32,13.07-42.08,25.8-62.85,38.54C59.76,113.29,59.37,112.92,58.98,112.55z"/>
		<path d="M31.34,112.03c12.45-12.07,24.9-24.14,37.69-36.55C55.88,62.73,43.48,50.7,31.08,38.68c0.41-0.5,0.81-1,1.22-1.5
			c20.43,12.51,40.85,25.01,61.96,37.94c-21.12,12.94-41.56,25.47-62,37.99C31.95,112.75,31.65,112.39,31.34,112.03z"/>
	</g>
</g>
</svg>
